M48
; DRILL file {KiCad (5.1.8)-1} date 06/03/21 01:22:21
; FORMAT={3:3/ absolute / metric / suppress trailing zeros}
; #@! TF.CreationDate,2021-06-03T01:22:21+09:00
; #@! TF.GenerationSoftware,Kicad,Pcbnew,(5.1.8)-1
FMAT,2
METRIC,LZ
T1C0.400
T2C0.950
T3C1.000
%
G90
G05
T1
X153416Y-062992
X153416Y-06858
X153416Y-078232
X153416Y-091186
X153416Y-113538
X153416Y-119126
X153416Y-128778
X153416Y-141732
X15367Y-093726
X15367Y-10287
X15367Y-144272
X15367Y-153416
X154559Y-090424
X154559Y-14097
X154686Y-08128
X154686Y-0889
X154686Y-131826
X154686Y-139446
X155321Y-074594
X155321Y-12514
X155956Y-079707
X155956Y-130253
X156337Y-080645
X156337Y-131191
X156591Y-090424
X156591Y-14097
X156845Y-087757
X156845Y-138303
X156972Y-106934
X156972Y-15748
X157226Y-059944
X157226Y-093599
X157226Y-11049
X157226Y-144145
X157353Y-080645
X157353Y-131191
X15748Y-078994
X15748Y-12954
X157988Y-06858
X157988Y-06985
X157988Y-074676
X157988Y-090297
X157988Y-119126
X157988Y-120396
X157988Y-125222
X157988Y-140843
X159258Y-06858
X159258Y-06985
X159258Y-119126
X159258Y-120396
X159512Y-084328
X159512Y-086413
X159512Y-134874
X159512Y-136959
X159893Y-090424
X159893Y-14097
X160192Y-06917
X160192Y-119716
X161036Y-06858
X161036Y-06985
X161036Y-074676
X161036Y-084328
X161036Y-08636
X161036Y-119126
X161036Y-120396
X161036Y-125222
X161036Y-134874
X161036Y-136906
X16129Y-059944
X16129Y-11049
X161925Y-079756
X161925Y-130302
X162179Y-091313
X162179Y-092456
X162179Y-141859
X162179Y-143002
X162306Y-06858
X162306Y-06985
X162306Y-119126
X162306Y-120396
X163322Y-090805
X163322Y-141351
X163576Y-074676
X163576Y-086106
X163576Y-125222
X163576Y-136652
X163703Y-079629
X163703Y-130175
X164084Y-089789
X164084Y-140335
X164592Y-092583
X164592Y-143129
X164846Y-076454
X164846Y-084328
X164846Y-127
X164846Y-134874
X164973Y-078105
X164973Y-128651
X165989Y-091567
X165989Y-142113
X166116Y-06731
X166116Y-117856
X16637Y-059944
X16637Y-11049
X166688Y-085852
X166688Y-136398
X166923Y-069297
X166923Y-119843
X167259Y-074676
X167259Y-125222
X167386Y-090424
X167386Y-14097
X16764Y-080772
X16764Y-131318
X167894Y-06731
X167894Y-117856
X167939Y-069297
X167939Y-119843
X168148Y-085852
X168148Y-136398
X168402Y-082677
X168402Y-133223
X168955Y-069297
X168955Y-119843
X169418Y-083566
X169418Y-093345
X169418Y-134112
X169418Y-143891
X169672Y-088379
X169672Y-138926
X169926Y-081534
X169926Y-13208
X17018Y-074168
X17018Y-124714
X170434Y-10668
X170434Y-157226
X170815Y-086741
X170815Y-137287
X170879Y-084074
X170879Y-13462
X170942Y-059944
X170942Y-11049
X172212Y-095504
X172212Y-14605
X172466Y-069088
X172466Y-119634
X174244Y-098806
X174244Y-10287
X174244Y-149352
X174244Y-153416
X174405Y-092109
X174405Y-142655
X174853Y-082703
X174853Y-084735
X174853Y-133249
X174853Y-135281
X17526Y-059944
X17526Y-11049
X176276Y-066548
X176276Y-117094
X17653Y-073152
X17653Y-081026
X17653Y-123698
X17653Y-131572
X177673Y-085852
X177673Y-093726
X177673Y-136398
X177673Y-144272
X177927Y-10033
X177927Y-150876
X178943Y-106934
X178943Y-15748
X17935Y-082143
X17935Y-084175
X17935Y-132689
X17935Y-134721
X179798Y-074769
X179798Y-125315
X179959Y-064008
X179959Y-068072
X179959Y-114554
X179959Y-118618
X181737Y-09779
X181737Y-148336
X181991Y-071374
X181991Y-12192
X183261Y-106934
X183261Y-15748
X183324Y-082804
X183324Y-13335
X183388Y-080137
X183388Y-130683
X183769Y-060198
X183769Y-110744
X184023Y-09271
X184023Y-143256
X184277Y-085344
X184277Y-13589
X184531Y-078498
X184531Y-129044
X184785Y-073533
X184785Y-083312
X184785Y-124079
X184785Y-133858
X185248Y-097581
X185248Y-148127
X185801Y-084201
X185801Y-134747
X186055Y-081026
X186055Y-131572
X186264Y-097581
X186264Y-148127
X186309Y-099568
X186309Y-150114
X186563Y-086106
X186563Y-136652
X186817Y-076454
X186817Y-127
X186944Y-092202
X186944Y-142748
X18728Y-097581
X18728Y-148127
X187516Y-081026
X187516Y-131572
X187833Y-106934
X187833Y-15748
X188087Y-099568
X188087Y-150114
X188214Y-075311
X188214Y-125857
X18923Y-088773
X18923Y-139319
X189357Y-08255
X189357Y-090424
X189357Y-133096
X189357Y-14097
X189611Y-074295
X189611Y-124841
X190119Y-077089
X190119Y-127635
X1905Y-087249
X1905Y-137795
X190627Y-080772
X190627Y-092202
X190627Y-131318
X190627Y-142748
X190881Y-076073
X190881Y-126619
X191897Y-097028
X191897Y-098298
X191897Y-147574
X191897Y-148844
X192024Y-074422
X192024Y-075565
X192024Y-124968
X192024Y-126111
X192278Y-087122
X192278Y-137668
X192913Y-106934
X192913Y-15748
X193167Y-080518
X193167Y-08255
X193167Y-092202
X193167Y-097028
X193167Y-098298
X193167Y-131064
X193167Y-133096
X193167Y-142748
X193167Y-147574
X193167Y-148844
X194011Y-097708
X194011Y-148254
X19431Y-076454
X19431Y-127
X194691Y-080465
X194691Y-08255
X194691Y-131011
X194691Y-133096
X194945Y-097028
X194945Y-098298
X194945Y-147574
X194945Y-148844
X196215Y-076581
X196215Y-092202
X196215Y-097028
X196215Y-098298
X196215Y-127127
X196215Y-142748
X196215Y-147574
X196215Y-148844
X196723Y-087884
X196723Y-13843
X19685Y-086233
X19685Y-136779
X196977Y-073279
X196977Y-106934
X196977Y-123825
X196977Y-15748
X197231Y-059944
X197231Y-11049
X197358Y-079121
X197358Y-129667
X197612Y-076454
X197612Y-127
X197866Y-086233
X197866Y-136779
X198247Y-087171
X198247Y-137717
X198882Y-092284
X198882Y-14283
X199517Y-077978
X199517Y-085598
X199517Y-128524
X199517Y-136144
X199644Y-076454
X199644Y-127
X200533Y-064008
X200533Y-073152
X200533Y-114554
X200533Y-123698
X200787Y-075692
X200787Y-088646
X200787Y-098298
X200787Y-103886
X200787Y-126238
X200787Y-139192
X200787Y-148844
X200787Y-154432
X203835Y-062992
X203835Y-06858
X203835Y-078232
X203835Y-091186
X203835Y-113538
X203835Y-119126
X203835Y-128778
X203835Y-141732
X204089Y-093726
X204089Y-10287
X204089Y-144272
X204089Y-153416
X204978Y-090424
X204978Y-14097
X205105Y-08128
X205105Y-0889
X205105Y-131826
X205105Y-139446
X20574Y-074594
X20574Y-12514
X206375Y-079707
X206375Y-130253
X206756Y-080645
X206756Y-131191
X20701Y-090424
X20701Y-14097
X207264Y-087757
X207264Y-138303
X207391Y-106934
X207391Y-15748
X207645Y-059944
X207645Y-093599
X207645Y-11049
X207645Y-144145
X207772Y-080645
X207772Y-131191
X207899Y-078994
X207899Y-12954
X208407Y-06858
X208407Y-06985
X208407Y-074676
X208407Y-090297
X208407Y-119126
X208407Y-120396
X208407Y-125222
X208407Y-140843
X209677Y-06858
X209677Y-06985
X209677Y-119126
X209677Y-120396
X209931Y-084328
X209931Y-086413
X209931Y-134874
X209931Y-136959
X210312Y-090424
X210312Y-14097
X210611Y-06917
X210611Y-119716
X211455Y-06858
X211455Y-06985
X211455Y-074676
X211455Y-084328
X211455Y-08636
X211455Y-119126
X211455Y-120396
X211455Y-125222
X211455Y-134874
X211455Y-136906
X211709Y-059944
X211709Y-11049
X212344Y-079756
X212344Y-130302
X212598Y-091313
X212598Y-092456
X212598Y-141859
X212598Y-143002
X212725Y-06858
X212725Y-06985
X212725Y-119126
X212725Y-120396
X213741Y-090805
X213741Y-141351
X213995Y-074676
X213995Y-086106
X213995Y-125222
X213995Y-136652
X214122Y-079629
X214122Y-130175
X214503Y-089789
X214503Y-140335
X215011Y-092583
X215011Y-143129
X215265Y-076454
X215265Y-084328
X215265Y-127
X215265Y-134874
X215392Y-078105
X215392Y-128651
X216408Y-091567
X216408Y-142113
X216535Y-06731
X216535Y-117856
X216789Y-059944
X216789Y-11049
X217106Y-085852
X217106Y-136398
X217342Y-069297
X217342Y-119843
X217678Y-074676
X217678Y-125222
X217805Y-090424
X217805Y-14097
X218059Y-080772
X218059Y-131318
X218313Y-06731
X218313Y-117856
X218358Y-069297
X218358Y-119843
X218567Y-085852
X218567Y-136398
X218821Y-082677
X218821Y-133223
X219374Y-069297
X219374Y-119843
X219837Y-083566
X219837Y-093345
X219837Y-134112
X219837Y-143891
X220091Y-088379
X220091Y-138926
X220345Y-081534
X220345Y-13208
X220599Y-074168
X220599Y-124714
X220853Y-10668
X220853Y-157226
X221234Y-086741
X221234Y-137287
X221298Y-084074
X221298Y-13462
X221361Y-059944
X221361Y-11049
X222631Y-095504
X222631Y-14605
X222885Y-069088
X222885Y-119634
X224663Y-098806
X224663Y-10287
X224663Y-149352
X224663Y-153416
X224824Y-092109
X224824Y-142655
X225272Y-082703
X225272Y-084735
X225272Y-133249
X225272Y-135281
X225679Y-059944
X225679Y-11049
X226695Y-066548
X226695Y-117094
X226949Y-073152
X226949Y-081026
X226949Y-123698
X226949Y-131572
X228092Y-085852
X228092Y-093726
X228092Y-136398
X228092Y-144272
X228346Y-10033
X228346Y-150876
X229362Y-106934
X229362Y-15748
X229769Y-082143
X229769Y-084175
X229769Y-132689
X229769Y-134721
X230217Y-074769
X230217Y-125315
X230378Y-064008
X230378Y-068072
X230378Y-114554
X230378Y-118618
X232156Y-09779
X232156Y-148336
X23241Y-071374
X23241Y-12192
X23368Y-106934
X23368Y-15748
X233743Y-082804
X233743Y-13335
X233807Y-080137
X233807Y-130683
X234188Y-060198
X234188Y-110744
X234442Y-09271
X234442Y-143256
X234696Y-085344
X234696Y-13589
X23495Y-078498
X23495Y-129044
X235204Y-073533
X235204Y-083312
X235204Y-124079
X235204Y-133858
X235667Y-097581
X235667Y-148127
X23622Y-084201
X23622Y-134747
X236474Y-081026
X236474Y-131572
X236683Y-097581
X236683Y-148127
X236728Y-099568
X236728Y-150114
X236982Y-086106
X236982Y-136652
X237236Y-076454
X237236Y-127
X237363Y-092202
X237363Y-142748
X237699Y-097581
X237699Y-148127
X237934Y-081026
X237934Y-131572
X238252Y-106934
X238252Y-15748
X238506Y-099568
X238506Y-150114
X238633Y-075311
X238633Y-125857
X239649Y-088773
X239649Y-139319
X239776Y-08255
X239776Y-090424
X239776Y-133096
X239776Y-14097
X24003Y-074295
X24003Y-124841
X240538Y-077089
X240538Y-127635
X240919Y-087249
X240919Y-137795
X241046Y-080772
X241046Y-092202
X241046Y-131318
X241046Y-142748
X2413Y-076073
X2413Y-126619
X242316Y-097028
X242316Y-098298
X242316Y-147574
X242316Y-148844
X242443Y-074422
X242443Y-075565
X242443Y-124968
X242443Y-126111
X242697Y-087122
X242697Y-137668
X243332Y-106934
X243332Y-15748
X243586Y-080518
X243586Y-08255
X243586Y-092202
X243586Y-097028
X243586Y-098298
X243586Y-131064
X243586Y-133096
X243586Y-142748
X243586Y-147574
X243586Y-148844
X24443Y-097708
X24443Y-148254
X244729Y-076454
X244729Y-127
X24511Y-080465
X24511Y-08255
X24511Y-131011
X24511Y-133096
X245364Y-097028
X245364Y-098298
X245364Y-147574
X245364Y-148844
X246634Y-076581
X246634Y-092202
X246634Y-097028
X246634Y-098298
X246634Y-127127
X246634Y-142748
X246634Y-147574
X246634Y-148844
X247142Y-087884
X247142Y-13843
X247269Y-086233
X247269Y-136779
X247396Y-073279
X247396Y-106934
X247396Y-123825
X247396Y-15748
X24765Y-059944
X24765Y-11049
X247777Y-079121
X247777Y-129667
X248031Y-076454
X248031Y-127
X248285Y-086233
X248285Y-136779
X248666Y-087171
X248666Y-137717
X249301Y-092284
X249301Y-14283
X249936Y-077978
X249936Y-085598
X249936Y-128524
X249936Y-136144
X250063Y-076454
X250063Y-127
X250952Y-064008
X250952Y-073152
X250952Y-114554
X250952Y-123698
X251206Y-075692
X251206Y-088646
X251206Y-098298
X251206Y-103886
X251206Y-126238
X251206Y-139192
X251206Y-148844
X251206Y-154432
T2
X212419Y-100454
X214919Y-100454
X217419Y-100454
X212419Y-151
X214919Y-151
X217419Y-151
X187203Y-066424
X189703Y-066424
X192203Y-066424
X162Y-151
X1645Y-151
X167Y-151
X187203Y-11697
X189703Y-11697
X192203Y-11697
X162Y-100454
X1645Y-100454
X167Y-100454
X237622Y-11697
X240122Y-11697
X242622Y-11697
X237622Y-066424
X240122Y-066424
X242622Y-066424
T3
X231902Y-13589
X231902Y-13839
X211114Y-114173
X213614Y-114173
X17272Y-079034
X17272Y-081534
X241427Y-153797
X243927Y-153797
X241427Y-103251
X243927Y-103251
X231902Y-085344
X231902Y-087844
X211114Y-063627
X213614Y-063627
X160695Y-114173
X163195Y-114173
X191008Y-153797
X193508Y-153797
X223139Y-079034
X223139Y-081534
X17272Y-12958
X17272Y-13208
X181483Y-13589
X181483Y-13839
X160695Y-063627
X163195Y-063627
X223139Y-12958
X223139Y-13208
X191008Y-103251
X193508Y-103251
X181483Y-085344
X181483Y-087844
T0
M30
